<svg width="340" height="200" viewBox="0 0 340 200" fill="none" xmlns="http://www.w3.org/2000/svg">
<g clip-path="url(#clip0_79_231)">
<path d="M167.414 123.231H169.081L177.69 135.214V123.231H179.17V137.758H177.767L168.885 125.431V137.758H167.414V123.231Z" fill="#6F8FA6"/>
<path d="M182.837 123.231H192.361V124.706H184.376V129.503H192.164V130.961H184.376V136.352H192.438V137.758H182.837V123.231Z" fill="#6F8FA6"/>
<path d="M200.072 124.706H194.669V123.231H207.006V124.706H201.603V137.767H200.072V124.706Z" fill="#6F8FA6"/>
<path d="M208.87 123.231H210.443L214.231 135.248L218.104 123.231H219.42L223.267 135.248L227.08 123.231H228.551L223.926 137.862H222.609L218.728 125.767L214.855 137.862H213.512L208.87 123.231Z" fill="#6F8FA6"/>
<path d="M229.936 130.486C229.936 125.31 232.56 122.998 237.16 122.998C241.759 122.998 244.427 125.31 244.427 130.486C244.427 135.662 241.785 137.991 237.16 137.991C232.535 137.991 229.936 135.679 229.936 130.486ZM242.896 130.503C242.896 126.587 241.093 124.465 237.16 124.465C233.227 124.465 231.466 126.587 231.466 130.503C231.466 134.42 233.253 136.559 237.16 136.559C241.067 136.559 242.896 134.437 242.896 130.503Z" fill="#6F8FA6"/>
<path d="M253.369 131.841H249.052V137.767H247.556V123.24H253.771C257.114 123.24 258.627 124.594 258.627 127.475C258.627 129.986 257.439 131.452 254.934 131.789L258.413 137.767H256.78L253.361 131.841H253.369ZM253.797 130.426C255.84 130.426 257.097 129.796 257.097 127.51C257.097 125.224 255.874 124.663 253.737 124.663H249.052V130.426H253.788H253.797Z" fill="#6F8FA6"/>
<path d="M266.262 130.055L263.39 133.229V137.767H261.894V123.24H263.39V131.254L270.674 123.24H272.444L267.28 128.942L273.145 137.767H271.418L266.262 130.055Z" fill="#6F8FA6"/>
<path d="M274.427 136.292L275.205 135.119C276.932 136.214 278.625 136.585 280.352 136.585C283.327 136.585 284.643 135.74 284.643 133.739C284.643 131.737 282.933 131.383 280.352 130.918C277.248 130.366 275.145 129.839 275.145 126.898C275.145 123.956 276.932 122.99 280.352 122.99C282.609 122.99 284.216 123.499 285.361 124.284L284.549 125.535C283.515 124.853 281.984 124.396 280.352 124.396C277.77 124.396 276.667 125.121 276.667 126.846C276.667 128.692 278.163 129.037 280.728 129.511C283.874 130.081 286.148 130.547 286.148 133.67C286.148 136.551 284.327 137.94 280.403 137.94C278.231 137.94 276.265 137.491 274.435 136.275" fill="#6F8FA6"/>
<path d="M301.196 63.1897C280.959 63.1897 280.096 72.3426 280.096 85.248V116.942H284.866V85.2566C284.866 75.5258 284.482 67.7273 301.196 67.7273C302.983 67.7273 304.573 67.8222 306 67.9947V63.3967C304.53 63.2673 302.94 63.1897 301.196 63.1897Z" fill="#1D1D1B"/>
<path d="M65.1289 96.3334V64.251H70.0021V96.4283C70.0021 105.676 69.908 113.483 86.7077 113.483C103.507 113.483 103.037 105.676 103.037 95.9452V64.251H107.808V95.9452C107.808 108.859 106.944 118.004 86.7077 118.004C66.4712 118.004 65.1289 108.851 65.1289 96.3248" fill="#1D1D1B"/>
<path d="M158.548 84.8686V116.942H153.683V84.7737C153.683 75.526 153.778 67.7275 136.978 67.7275C120.178 67.7275 120.649 75.526 120.649 85.2568V116.951H115.878V85.2568C115.878 72.3427 116.733 63.1985 136.978 63.1985C157.223 63.1985 158.557 72.3514 158.557 84.8686" fill="#1D1D1B"/>
<path d="M172.091 64.3545H167.414V116.951H172.091V64.3545Z" fill="#1D1D1B"/>
<path d="M180.837 64.3545H205.237C217.334 64.3545 222.823 70.4276 222.823 81.2109C222.823 91.9942 217.411 98.6713 205.168 98.6713H185.505V116.942H180.828V64.3545H180.837ZM205.305 93.9439C213.735 93.9439 217.924 89.7945 217.924 81.418C217.924 73.0415 213.401 69.0733 205.091 69.0733H185.505V93.9439H205.305Z" fill="#1D1D1B"/>
<path d="M228.26 90.4586C228.26 74.9479 232.654 63 252.326 63C271.999 63 273.324 76.7767 273.23 91.3213H232.945C233.039 104.132 236.185 113.673 252.703 113.673C261.491 113.673 265.493 111.266 269.793 108.083L272.46 111.646C267.69 115.208 262.056 118.003 252.703 118.003C232.081 118.003 228.26 105.961 228.26 90.45M233.039 86.8872H268.553C268.074 76.3885 267.408 67.4341 252.224 67.4341C237.04 67.4341 233.612 75.431 233.039 86.8872Z" fill="#1D1D1B"/>
<path d="M35.8127 128.356C56.0492 128.356 56.9127 119.203 56.9127 106.297V64.251H52.1421V106.297C52.1421 116.019 52.5183 123.827 35.8213 123.827C35.1886 123.827 34.5902 123.809 34.0088 123.783V128.321C34.5987 128.338 35.1972 128.347 35.8213 128.347" fill="#1D1D1B"/>
<path d="M295.313 117.175C293.492 117.175 292.013 115.683 292.013 113.845C292.013 112.008 293.492 110.524 295.313 110.524C297.134 110.524 298.604 112.017 298.604 113.845C298.604 115.674 297.134 117.175 295.313 117.175ZM295.313 110.956C293.731 110.956 292.44 112.249 292.44 113.845C292.44 115.441 293.731 116.744 295.313 116.744C296.894 116.744 298.177 115.441 298.177 113.845C298.177 112.249 296.886 110.956 295.313 110.956Z" fill="#1D1D1B"/>
<path d="M295.527 114.285H294.467V115.752H293.963V111.93H295.647C296.605 111.93 296.972 112.327 296.972 113.078C296.972 113.69 296.716 114.121 296.057 114.242L296.912 115.743H296.365L295.519 114.277L295.527 114.285ZM295.647 113.811C296.16 113.811 296.459 113.656 296.459 113.103C296.459 112.551 296.169 112.422 295.63 112.422H294.476V113.811H295.647Z" fill="#1D1D1B"/>
</g>
<defs>
<clipPath id="clip0_79_231">
<rect width="272" height="75" fill="white" transform="translate(34 63)"/>
</clipPath>
</defs>
</svg>
