<svg width="340" height="200" viewBox="0 0 340 200" fill="none" xmlns="http://www.w3.org/2000/svg">
<g clip-path="url(#clip0_79_279)">
<path d="M72.0458 120.552H46.151L60.6553 100.509L76.296 78.894C78.1302 76.3625 77.5934 72.7948 75.097 70.9269C74.1619 70.2316 73.0882 69.8862 72.0145 69.8362H35.3331C32.4475 69.8362 30.1076 72.2177 30.1076 75.1536C30.1076 78.0895 32.4475 80.4665 35.3376 80.4665H61.2324L46.7281 100.509L31.0874 122.124C29.2576 124.66 29.79 128.228 32.2864 130.091C33.2214 130.786 34.2952 131.132 35.3689 131.177H72.0502C74.9404 131.177 77.2802 128.8 77.2802 125.864C77.2802 122.929 74.9404 120.552 72.0502 120.552" fill="#1D1D1B"/>
<path d="M303.77 120.552H280.783V74.7309C280.783 71.5814 278.278 69.0317 275.173 69.0317C272.068 69.0317 269.562 71.5814 269.562 74.7309V125.483C269.562 125.551 269.585 125.605 269.585 125.674C269.585 125.742 269.562 125.801 269.562 125.864C269.562 128.8 271.907 131.177 274.797 131.177H303.77C306.655 131.177 309 128.8 309 125.864C309 122.929 306.655 120.552 303.77 120.552Z" fill="#1D1D1B"/>
<path d="M251.037 120.552H227.683V105.113H243.217C246.098 105.113 248.446 102.736 248.446 99.8C248.446 96.8641 246.102 94.4872 243.217 94.4872H227.683V80.4619H251.037C253.927 80.4619 256.271 78.085 256.271 75.1491C256.271 72.2131 253.927 69.8362 251.037 69.8362H221.702C218.812 69.8362 216.472 72.2177 216.472 75.1491V125.86C216.472 128.796 218.812 131.173 221.702 131.173H251.037C253.927 131.173 256.271 128.796 256.271 125.86C256.271 122.924 253.927 120.547 251.037 120.547" fill="#1D1D1B"/>
<path d="M185.011 104.463L177.683 113.316L191.453 129.95C192.567 131.291 194.151 131.982 195.748 131.982C197.023 131.982 198.307 131.546 199.359 130.65C201.73 128.623 202.034 125.028 200.043 122.62L185.011 104.463Z" fill="#1D1D1B"/>
<path d="M200.044 78.3623C202.039 75.9581 201.73 72.3632 199.359 70.3362C198.308 69.4408 197.024 69 195.753 69C194.152 69 192.563 69.6908 191.449 71.0315L177.679 87.6746L185.007 96.5233L200.039 78.3668L200.044 78.3623Z" fill="#1D1D1B"/>
<path d="M161.398 75.9445C161.375 75.9217 161.366 75.8899 161.344 75.8672L157.344 71.0315C156.23 69.6908 154.646 69 153.04 69C151.77 69 150.49 69.4408 149.434 70.3362C147.063 72.3632 146.759 75.9581 148.75 78.3623L167.066 100.491L148.75 122.62C146.755 125.028 147.063 128.619 149.434 130.646C150.486 131.546 151.765 131.982 153.04 131.982C154.642 131.982 156.23 131.291 157.344 129.95L161.344 125.115C161.366 125.087 161.375 125.06 161.398 125.037L181.713 100.491L161.398 75.9445Z" fill="#1D1D1B"/>
<path d="M135.807 69.9726C133.235 68.2183 129.75 68.9136 128.023 71.5223L117.746 87.0474L112.14 95.5234L106.53 87.0474L96.2537 71.5223C94.5223 68.9091 91.0416 68.2183 88.4691 69.9726C85.9011 71.7268 85.2166 75.2672 86.9436 77.8805L106.53 107.476V126.305C106.53 129.455 109.04 132.005 112.14 132.005C115.241 132.005 117.746 129.455 117.746 126.305V107.476L137.328 77.8805C139.055 75.2672 138.375 71.7314 135.807 69.9726Z" fill="#1D1D1B"/>
</g>
<defs>
<clipPath id="clip0_79_279">
<rect width="279" height="63" fill="white" transform="translate(30 69)"/>
</clipPath>
</defs>
</svg>
