<svg width="338" height="200" viewBox="0 0 338 200" fill="none" xmlns="http://www.w3.org/2000/svg">
<g clip-path="url(#clip0_79_142)">
<path d="M68.1163 56.584H7.65137V109.707H68.1163V56.584Z" fill="#F18FA5"/>
<path d="M46.9128 89.2646C45.661 89.4331 43.2134 89.6858 42.0345 89.8038C40.9623 89.9161 39.8003 89.9666 38.5877 90.0397C37.5099 90.1014 36.3872 90.0509 35.2476 90.0621C34.1136 90.0621 32.946 90.0621 31.7896 89.9273C29.4318 89.6409 28.9434 89.3096 28.3091 89.2365C27.0011 89.0737 26.0075 88.8378 24.9016 88.5963C23.9978 88.3997 23.0659 88.1975 22.5102 88.1751C22.4484 88.1133 22.2519 87.7202 22.2126 87.6359C21.612 86.2207 21.6232 86.3948 21.0169 84.3505C20.7138 83.3452 20.3208 81.2559 20.1131 79.9081C19.9447 78.8241 19.7258 78.5096 19.6472 78.2513C19.3384 77.2123 19.4451 76.5889 19.389 75.4544C19.3328 74.3256 19.2767 71.568 19.3328 70.4279C19.417 68.6251 19.5293 68.3949 19.7875 67.2941C20.0458 66.1877 20.6015 65.0476 21.0787 64.0311C21.4941 63.1437 21.7074 62.335 22.3137 61.5488C23.0098 60.6502 23.1782 60.2458 23.5262 59.9144C23.5543 59.8864 23.8182 59.8246 23.8575 59.819C24.7107 59.5382 25.4854 59.4483 25.9345 59.3135C26.0412 59.3023 26.4847 59.3528 26.5913 59.3528C26.7822 59.3528 28.0116 59.3978 29.8416 59.4427C30.8016 59.4651 31.9187 59.555 33.1369 59.5775C34.2315 59.6056 35.4048 59.6168 36.6173 59.6393C37.7232 59.6561 38.8628 59.6056 39.9968 59.6168C41.0409 59.628 42.0851 59.7123 43.0955 59.7179C44.1902 59.7179 45.2456 59.6842 46.2336 59.6729C47.3451 59.6617 48.3668 59.6168 49.2594 59.5887C50.6123 59.5438 51.6676 59.5438 52.2234 59.4315C53.2956 59.218 54.0984 59.1057 54.8113 59.1057C55.0022 59.1563 55.0807 59.2237 55.2435 59.2967C55.8442 59.5719 56.675 60.1896 56.675 60.1896C56.675 60.5772 56.5347 63.1494 56.7199 64.9409C56.8266 65.9631 57.0062 67.12 57.1634 68.3106C57.315 69.4339 57.3824 70.3268 57.5452 71.4164C57.7079 72.5115 58.0953 74.0672 58.23 74.9434C58.477 76.5327 58.5444 75.6735 58.7633 77.0045C59.0552 78.7287 58.8924 78.5433 59.0833 80.5315C59.1956 81.6547 59.0047 84.0472 58.8251 85.1873C58.6398 86.3554 58.1514 87.2596 57.7753 87.4225C56.9894 87.7595 54.4408 88.1189 54.946 88.0347C53.6493 88.2425 53.7559 88.0908 52.9756 88.2425C50.9491 88.6525 50.5168 88.5626 49.1359 88.6918C47.8503 88.8153 48.8327 88.922 47.3339 89.1242C47.2216 89.1411 47.0644 89.2478 46.9128 89.2702" fill="#2D2E87"/>
<path d="M25.6936 61.7789C26.1427 60.7905 26.5356 60.8635 27.4787 60.7961C28.0289 60.7568 28.7025 60.9084 29.6063 61.0432C30.2013 61.1331 30.207 60.9534 30.9929 61.1724C31.5767 61.3353 31.689 61.2903 32.5928 61.4307C33.3057 61.5374 35.4614 62.0148 36.3034 62.1047C37.0557 62.1777 37.8528 62.5764 38.6668 62.6382C39.4415 62.6944 40.2274 62.7618 41.0133 62.8011C41.7992 62.8404 42.5851 62.8629 43.343 62.8797C44.157 62.891 44.9485 62.7337 45.6895 62.7225C46.5091 62.7112 47.2613 62.5652 47.9294 62.5147C48.8444 62.4473 49.5966 62.3125 50.085 62.1608C51.0169 61.88 51.7803 61.925 52.4315 62.0429C53.2848 62.1945 53.8462 62.5427 54.1774 63.2729C54.4356 63.8569 54.284 64.4298 54.4356 65.4856C54.5142 65.9855 54.2728 66.8279 54.2672 67.8557C54.256 68.5577 54.2953 69.3496 54.3065 70.1808C54.3121 70.9446 54.4244 71.7421 54.4412 72.5508C54.4581 73.3371 54.4524 74.1346 54.4693 74.9152C54.4917 75.7408 54.531 76.5383 54.5591 77.2852C54.5816 78.1277 54.604 78.8971 54.6265 79.5542C54.677 80.9077 54.8791 80.5651 54.75 81.8119C54.6321 82.9463 55.0026 83.1598 53.9192 84.0078C53.4813 84.356 52.8076 84.7772 51.8477 84.8727C51.5558 84.9008 50.8148 85.1367 49.7033 85.4062C49.0914 85.5635 48.3672 85.7207 47.5532 85.9061C46.902 86.0577 46.1498 86.1588 45.3864 86.3048C44.7015 86.4396 43.9885 86.5126 43.2307 86.6362C42.5458 86.7485 41.7992 86.7766 41.0694 86.8664C40.379 86.9563 39.6548 86.8833 38.9306 86.9507C38.2626 87.0068 37.5833 87.0686 36.8985 87.1023C36.3371 87.1248 36.9097 87.2877 36.6066 87.3831C35.9161 87.6134 35.7308 87.5292 34.4116 87.5067C33.7492 87.4955 33.098 87.5067 32.2896 87.4561C31.5879 87.4168 30.8076 87.3494 30.0778 87.2708C29.3481 87.1922 28.6407 86.9675 27.9503 86.8327C27.1756 86.6811 26.3953 86.6867 25.789 86.4452C25.0143 86.142 24.3912 85.8218 24.1161 85.3276C23.8972 84.9345 23.8354 84.0078 23.7512 83.0081C23.7007 82.3623 23.74 81.6153 23.7344 80.7953C23.7288 80.1158 23.6053 79.3857 23.6277 78.6163C23.6446 77.903 23.639 77.1561 23.6782 76.3979C23.7175 75.6846 23.7456 74.9489 23.7961 74.2244C23.8523 73.4943 24.0544 72.7754 24.1161 72.0509C24.1779 71.3208 24.3126 70.6076 24.3856 69.9056C24.4585 69.1867 24.4417 68.4734 24.5203 67.8051C24.6101 67.0638 24.7898 66.373 24.8852 65.7271C24.9975 64.9296 24.9133 64.1827 25.0255 63.5874C25.2164 62.5259 25.5644 61.9025 25.7048 61.7621" fill="white"/>
<path d="M62.7269 103.12C62.261 103.271 60.5432 103.698 59.0781 103.664C58.3034 103.642 57.1806 103.76 55.7884 103.822C54.8004 103.861 53.7731 103.687 52.5493 103.76C51.5557 103.816 50.4891 103.799 49.372 103.878C48.2605 103.945 47.1097 104.086 45.914 104.181C44.8361 104.26 44.2186 104.131 43.0959 104.232C41.9619 104.327 41.0806 103.962 39.9242 104.069C38.88 104.17 37.0668 104.187 36.0227 104.299C34.9505 104.411 33.7211 104.838 32.6769 104.962C31.5879 105.085 30.7009 105.007 29.6624 105.142C28.5733 105.288 27.3383 105.641 26.3166 105.793C25.2444 105.961 24.2171 106.136 23.2515 106.31C22.2074 106.501 21.225 106.607 20.3437 106.81C19.5297 106.995 18.8224 107.276 18.1768 107.472C16.6442 107.944 15.4485 108.214 14.5167 108.343C12.5238 108.618 11.6312 108.214 11.0867 107.41C10.5983 106.697 10.4299 105.546 10.2952 104.546C10.1324 103.339 10.1829 103.895 9.97519 102.777C9.66644 101.132 9.4026 100.093 10.385 99.0592C10.8958 98.52 11.8053 97.891 12.8606 97.4136C14.3763 96.5993 13.7757 96.7116 15.9257 95.8467C16.7734 95.5041 17.8231 95.1335 19.0581 94.7291C20.0181 94.4202 21.1352 94.2124 22.3421 93.8811C23.3414 93.6115 24.4248 93.3419 25.5981 93.0779C26.6366 92.8421 27.7257 92.5163 28.9101 92.2917C29.9599 92.0839 31.0658 91.8929 32.2278 91.7076C33.3449 91.5223 34.5294 91.3931 35.7588 91.2302C36.8535 91.0842 37.9931 90.9831 39.1776 90.8596C40.2273 90.7472 41.3051 90.545 42.4279 90.4496C43.5225 90.3597 45.0326 90.4608 46.189 90.3878C47.2163 90.3204 47.8844 90.1182 48.9678 90.0621C50.0232 90.0115 51.1066 89.989 52.2125 89.9553C53.296 89.9217 54.4019 89.888 55.5414 89.8767C56.4845 89.8599 57.4445 89.8093 58.4269 89.7981C60.0212 89.7981 61.5761 89.888 62.3845 90.4046C63.5915 91.1741 63.4567 91.6346 63.5016 93.1566C63.5578 94.8695 63.395 94.0383 63.67 95.7344C63.9676 97.5597 64.0125 99.1603 64.1304 100.744C64.1977 101.57 63.6476 102.283 62.7213 103.12" fill="#2D2E87"/>
<path d="M18.8166 100.362C19.3892 100.362 19.8439 99.9241 19.8439 99.2951C19.8439 98.6661 19.3892 98.127 18.8166 98.127C18.244 98.127 17.8623 98.6661 17.8623 99.2951C17.8623 99.9241 18.244 100.362 18.8166 100.362Z" fill="white"/>
<path d="M24.9914 103.434C25.5584 103.518 26.0468 102.94 26.0468 102.367C26.0468 101.794 25.564 101.418 24.9914 101.418C24.4188 101.418 23.9866 101.794 23.981 102.367C23.9585 103.76 24.7163 103.389 24.9914 103.434Z" fill="white"/>
<path d="M21.5058 104.176C22.0784 104.176 22.5724 103.642 22.5724 103.075C22.5724 102.508 22.0784 102.058 21.5058 102.058C20.9332 102.058 20.5459 102.508 20.5459 103.075C20.5459 103.642 20.9332 104.176 21.5058 104.176Z" fill="white"/>
<path d="M35.0682 99.7726C35.6408 99.7726 36.1404 99.2446 36.1404 98.6718C36.1404 98.0989 35.6408 97.7283 35.0682 97.7283C34.4956 97.7283 33.8052 97.9585 34.0465 98.6999C34.2262 99.239 34.4956 99.7669 35.0682 99.7669" fill="white"/>
<path d="M29.1963 101.014C29.6903 101.014 30.1506 100.615 30.1506 100.048C30.1506 99.4805 29.6903 99.1155 29.1963 99.1155C28.7023 99.1155 28.3262 99.4749 28.3262 100.048C28.3262 100.621 28.7079 101.014 29.1963 101.014Z" fill="white"/>
<path d="M26.4348 100.244C26.9905 100.368 27.4284 99.7669 27.4284 99.1996C27.4284 98.6324 27.0074 98.1494 26.4348 98.1494C25.8622 98.1494 25.4131 98.6212 25.4131 99.1996C25.4131 99.7781 25.3963 100.02 26.4348 100.244Z" fill="white"/>
<path d="M32.5705 96.532C33.1431 96.532 33.5866 96.386 33.5866 95.8132C33.5866 95.2403 33.042 94.8191 32.475 94.8191C31.9081 94.8191 31.3916 95.2459 31.3916 95.8132C31.3916 96.3804 32.0035 96.532 32.5705 96.532Z" fill="white"/>
<path d="M35.489 95.0157C36.0616 95.0157 36.5724 94.572 36.5724 93.9992C36.5724 93.4263 36.0616 93.022 35.489 93.022C34.9164 93.022 34.4111 93.432 34.4111 93.9992C34.4111 94.5664 34.9107 95.0157 35.489 95.0157Z" fill="white"/>
<path d="M17.9463 104.237C18.3561 104.237 18.6873 103.917 18.6873 103.468C18.6873 103.019 18.3561 102.625 17.9463 102.625C17.5365 102.625 17.2559 103.013 17.2559 103.468C17.2559 103.923 17.5309 104.237 17.9463 104.237Z" fill="#FFEE00"/>
<path d="M26.8448 96.0659C27.2602 96.0659 27.6195 95.684 27.6195 95.274C27.6195 94.8641 27.2602 94.5383 26.8448 94.5383C26.4294 94.5383 26.1543 94.8641 26.1543 95.274C26.1543 95.684 26.435 96.0659 26.8448 96.0659Z" fill="#FFEE00"/>
<path d="M23.3418 99.6152C23.7572 99.6152 24.0772 99.5085 24.0772 99.0985C24.0772 98.6885 23.6842 98.3796 23.2744 98.3796C22.8646 98.3796 22.4941 98.6829 22.4941 99.0985C22.4941 99.5141 22.932 99.6152 23.3418 99.6152Z" fill="#FFEE00"/>
<path d="M32.4358 101.429C32.8512 101.429 33.2161 101.109 33.2161 100.699C33.2161 100.289 32.8456 99.9917 32.4358 99.9917C32.026 99.9917 31.6611 100.284 31.6611 100.699C31.6611 101.115 32.0204 101.429 32.4358 101.429Z" fill="#FFEE00"/>
<path d="M47.2054 101.8C48.0026 101.8 48.665 101.109 48.665 100.317C48.665 99.5255 47.9689 98.8459 47.1774 98.8459C46.3858 98.8459 45.8525 99.5367 45.8525 100.323C45.8525 101.109 46.4139 101.8 47.211 101.8" fill="#FFEE00"/>
<path d="M45.4872 96.8408C46.2787 96.8408 47.0085 96.1388 47.0085 95.3413C47.0085 94.5438 46.2843 93.9316 45.4872 93.9316C44.69 93.9316 44.1006 94.555 44.1006 95.3413C44.1006 96.1276 44.69 96.8408 45.4872 96.8408Z" fill="#FFEE00"/>
<path d="M53.9865 97.2285C54.778 97.2285 55.4011 96.6444 55.4011 95.8525C55.4011 95.0606 54.778 94.5159 53.9865 94.5159C53.1949 94.5159 52.6729 95.055 52.6729 95.8525C52.6729 96.65 53.1949 97.2285 53.9865 97.2285Z" fill="#FFEE00"/>
<path d="M50.9664 100.025C51.7579 100.025 52.4035 99.2784 52.4035 98.4866C52.4035 97.6947 51.7635 97.1892 50.9664 97.1892C50.1692 97.1892 49.3945 97.6947 49.3945 98.4866C49.3945 99.2784 50.1692 100.025 50.9664 100.025Z" fill="#FFEE00"/>
<path d="M41.8613 76.8641V77.6167M36.9381 76.2744V76.9483M28.1358 78.9758L27.6699 79.807M52.0164 74.2076L51.9884 75.1512M48.811 68.1085L47.4469 72.534M31.8633 68.9902V70.2145L41.5357 75.651L37.404 75.3365M47.1101 73.3596L41.5525 76.1789L40.2782 72.5116M32.0317 70.2482L40.1379 71.4726L48.7156 68.6476L52.095 72.7587L47.4413 73.6348M31.4647 70.8099L28.4502 77.8694L37.1233 74.9546L48.8728 68.2713V67.047M27.7934 82.1939L28.8151 80.1833L26.7998 79.1611L25.7725 81.1717L27.7934 82.1939ZM38.0833 76.909H35.821V79.1667H38.0833V76.909ZM43.0794 77.5043H40.8171V79.7621H43.0794V77.5043ZM53.229 75.168H50.9667V77.4257H53.229V75.168ZM50.0236 64.8174H47.7613V67.0807H50.0236V64.8174ZM33.0253 66.637H30.763V68.9003H33.0253V66.637Z" stroke="#2D2E87" stroke-width="0.8"/>
<path d="M48.7885 70.0292C49.3723 70.0292 49.8439 69.5574 49.8439 68.9789C49.8439 68.4005 49.3723 67.9287 48.7885 67.9287C48.2047 67.9287 47.7275 68.4005 47.7275 68.9789C47.7275 69.5574 48.1991 70.0292 48.7885 70.0292Z" fill="#E7344C"/>
<path d="M37.0053 76.3925C37.6172 76.3925 38.1168 75.8926 38.1168 75.2861C38.1168 74.6795 37.6172 74.1741 37.0053 74.1741C36.3934 74.1741 35.8994 74.6683 35.8994 75.2861C35.8994 75.9039 36.3934 76.3925 37.0053 76.3925Z" fill="#E7344C"/>
<path d="M40.2614 72.826C40.8453 72.826 41.3168 72.3543 41.3168 71.7702C41.3168 71.1861 40.8453 70.7144 40.2614 70.7144C39.6776 70.7144 39.2061 71.1861 39.2061 71.7702C39.2061 72.3543 39.6776 72.826 40.2614 72.826Z" fill="#E7344C"/>
<path d="M28.573 79.223C29.1568 79.223 29.6283 78.7513 29.6283 78.1728C29.6283 77.5943 29.1568 77.1169 28.573 77.1169C27.9891 77.1169 27.5176 77.5887 27.5176 78.1728C27.5176 78.7569 27.9891 79.223 28.573 79.223Z" fill="#F087AA"/>
<path d="M47.4187 74.4603C48.0025 74.4603 48.4796 73.9886 48.4796 73.4101C48.4796 72.8316 48.0081 72.3542 47.4187 72.3542C46.8292 72.3542 46.3633 72.826 46.3633 73.4101C46.3633 73.9942 46.8348 74.4603 47.4187 74.4603Z" fill="#F087AA"/>
<path d="M31.8347 71.6017C32.4185 71.6017 32.89 71.1299 32.89 70.5514C32.89 69.973 32.4185 69.4956 31.8347 69.4956C31.2508 69.4956 30.7793 69.9674 30.7793 70.5514C30.7793 71.1355 31.2508 71.6017 31.8347 71.6017Z" fill="#FFEE00"/>
<path d="M51.8874 74.3649C52.4712 74.3649 52.9428 73.8931 52.9428 73.3146C52.9428 72.7362 52.4712 72.2588 51.8874 72.2588C51.3036 72.2588 50.832 72.7305 50.832 73.3146C50.832 73.8987 51.3036 74.3649 51.8874 74.3649Z" fill="#FFEE00"/>
<path d="M41.9001 76.9989C42.4839 76.9989 42.9555 76.5271 42.9555 75.943C42.9555 75.359 42.4839 74.8928 41.9001 74.8928C41.3163 74.8928 40.8447 75.3646 40.8447 75.943C40.8447 76.5215 41.3163 76.9989 41.9001 76.9989Z" fill="#FFEE00"/>
<path d="M107.322 67.047C106.368 62.2396 102.517 59.8134 97.8068 59.8134C89.7175 59.8134 86.2932 66.4798 86.2932 73.573C86.2932 81.3346 89.7175 87.8045 97.8517 87.8045C103.802 87.8045 107.227 83.6148 107.653 77.9986H112.172C111.319 86.4734 106.036 91.6122 97.47 91.6122C86.9051 91.6122 81.7686 83.8057 81.7686 73.9044C81.7686 64.0031 87.3878 56 97.8517 56C104.942 56 110.797 59.8134 111.841 67.047H107.322Z" fill="#1D1D1B"/>
<path d="M115.934 56.8088H119.981V69.8047H120.076C121.407 66.8506 124.882 65.615 127.835 65.615C134.307 65.615 136.3 69.3273 136.3 74.6121V90.798H132.258V74.1348C132.258 71.1357 130.355 69.1869 127.262 69.1869C122.361 69.1869 119.987 72.4724 119.987 76.8979V90.798H115.939V56.8088H115.934Z" fill="#1D1D1B"/>
<path d="M161.427 82.9915C160.332 88.4167 156.431 91.3708 150.912 91.3708C143.064 91.3708 139.348 85.9456 139.112 78.4199C139.112 71.0402 143.963 65.615 150.676 65.615C159.383 65.615 162.044 73.7528 161.814 79.706H143.401C143.261 83.9911 145.686 87.7989 151.058 87.7989C154.393 87.7989 156.722 86.1815 157.435 82.9915H161.432H161.427ZM157.525 76.1341C157.334 72.2758 154.438 69.1869 150.435 69.1869C146.202 69.1869 143.676 72.3769 143.396 76.1341H157.525Z" fill="#1D1D1B"/>
<path d="M182.265 74.0898C181.647 70.9953 179.508 69.1869 176.18 69.1869C170.324 69.1869 168.517 73.8034 168.517 78.8018C168.517 83.3228 170.56 87.7989 175.702 87.7989C179.604 87.7989 181.939 85.5131 182.461 81.8008H186.599C185.7 87.7989 181.939 91.3708 175.753 91.3708C168.236 91.3708 164.239 86.1365 164.239 78.8018C164.239 71.4671 168.051 65.615 175.848 65.615C181.417 65.615 185.891 68.2321 186.464 74.0842H182.276L182.265 74.0898Z" fill="#1D1D1B"/>
<path d="M189.922 56.8088H193.969V76.9485L205.197 66.1879H210.62L200.869 75.1401L211.332 90.798H206.196L197.775 77.9482L193.969 81.4695V90.798H189.922V56.8088Z" fill="#1D1D1B"/>
<path d="M225.895 56.8145H240.788C247.547 56.8145 251.212 60.5773 251.212 66.8562C251.212 73.1351 247.547 76.9485 240.788 76.8979H230.414V90.798H225.895V56.8145ZM230.414 73.0958H239.266C244.358 73.1463 246.688 70.9055 246.688 66.8618C246.688 62.8182 244.358 60.6278 239.266 60.6278H230.414V73.1014V73.0958Z" fill="#1D1D1B"/>
<path d="M264.584 65.6206C272.387 65.6206 276.524 71.2817 276.524 78.521C276.524 85.7602 272.387 91.3708 264.584 91.3708C256.781 91.3708 252.638 85.7041 252.638 78.521C252.638 71.3379 256.775 65.6206 264.584 65.6206ZM264.584 87.8045C268.816 87.8045 272.241 84.4741 272.241 78.521C272.241 72.5678 268.816 69.1925 264.584 69.1925C260.351 69.1925 256.921 72.5229 256.921 78.521C256.921 84.5191 260.351 87.8045 264.584 87.8045Z" fill="#1D1D1B"/>
<path d="M284.513 61.7623H280.471V56.8088H284.513V61.7623ZM280.471 66.1879H284.513V90.798H280.471V66.1879Z" fill="#1D1D1B"/>
<path d="M289.604 66.1878H293.41V70.0911H293.505C295.217 67.0471 297.973 65.615 301.499 65.615C307.966 65.615 309.97 69.3273 309.97 74.6121V90.798H305.928V74.1347C305.928 71.1357 304.025 69.1813 300.926 69.1813C296.026 69.1813 293.645 72.4667 293.645 76.8923V90.7923H289.604V66.1878Z" fill="#1D1D1B"/>
<path d="M320.49 66.1878H325.391V69.7597H320.49V85.0413C320.49 86.8946 321.012 87.2316 323.533 87.2316H325.385V90.8035H322.292C318.11 90.8035 316.443 89.9442 316.443 85.4232V69.7597H312.255V66.1878H316.443V58.8137H320.485V66.1878H320.49Z" fill="#1D1D1B"/>
<path d="M29.8365 143.455H26.6535L21.4215 124.181H21.3542L16.0549 143.455H12.8775L7 120.519H10.1156L14.6122 139.603H14.6739L19.8104 120.519H23.1225L28.1973 139.603H28.2646L32.9184 120.519H35.9666L29.8365 143.455Z" fill="#1D1D1B"/>
<path d="M50.2314 138.187C49.4904 141.849 46.8576 143.843 43.1357 143.843C37.8308 143.843 35.3271 140.181 35.1699 135.104C35.1699 130.122 38.4427 126.461 42.9673 126.461C48.8449 126.461 50.6468 131.953 50.484 135.969H38.061C37.9655 138.861 39.5991 141.433 43.2312 141.433C45.4823 141.433 47.0541 140.338 47.5369 138.187H50.2314ZM47.593 133.565C47.4639 130.959 45.5047 128.87 42.8101 128.87C39.9528 128.87 38.2518 131.027 38.061 133.565H47.593Z" fill="#1D1D1B"/>
<path d="M74.9257 127.23C74.572 123.956 72.3883 122.54 69.2446 122.54C66.6735 122.54 64.1081 123.473 64.1081 126.461C64.1081 129.291 67.7682 129.707 71.462 130.544C75.1221 131.375 78.7879 132.661 78.7879 137.159C78.7879 142.045 74.005 144 69.8284 144C64.6863 144 60.3525 141.495 60.3525 135.901H63.2436C63.2436 139.76 66.4546 141.428 69.9239 141.428C72.6802 141.428 75.734 140.557 75.734 137.249C75.734 133.941 72.0739 133.554 68.4138 132.751C64.7537 131.948 61.0542 130.886 61.0542 126.68C61.0542 122.024 65.1971 119.968 69.3737 119.968C74.0611 119.968 77.6258 122.181 77.8167 127.224H74.9313L74.9257 127.23Z" fill="#1D1D1B"/>
<path d="M96.1562 138.187C95.4152 141.849 92.7824 143.843 89.0605 143.843C83.7612 143.843 81.2519 140.181 81.0947 135.104C81.0947 130.122 84.3731 126.461 88.8977 126.461C94.7753 126.461 96.5716 131.953 96.4145 135.969H83.9858C83.8903 138.861 85.5295 141.433 89.156 141.433C91.4014 141.433 92.9789 140.338 93.4617 138.187H96.1562ZM93.5178 133.565C93.3887 130.959 91.4295 128.87 88.7349 128.87C85.8776 128.87 84.1766 131.027 83.9802 133.565H93.5178Z" fill="#1D1D1B"/>
<path d="M110.96 132.178C110.539 130.089 109.096 128.864 106.85 128.864C102.898 128.864 101.68 131.981 101.68 135.357C101.68 138.406 103.061 141.428 106.53 141.428C109.163 141.428 110.741 139.889 111.094 137.379H113.89C113.278 141.428 110.741 143.837 106.564 143.837C101.489 143.837 98.7891 140.305 98.7891 135.357C98.7891 130.409 101.36 126.455 106.626 126.455C110.381 126.455 113.401 128.219 113.789 132.172H110.96V132.178Z" fill="#1D1D1B"/>
<path d="M130.579 143.455H128.008V140.821H127.946C126.79 142.877 124.932 143.843 122.552 143.843C118.184 143.843 116.837 141.338 116.837 137.772V126.848H119.571V138.092C119.571 140.119 120.856 141.433 122.945 141.433C126.251 141.433 127.857 139.215 127.857 136.227V126.848H130.585V143.461L130.579 143.455Z" fill="#1D1D1B"/>
<path d="M133.892 126.848H136.457V130.353H136.524C137.838 127.685 139.674 126.365 142.626 126.461V129.353C138.231 129.353 136.62 131.858 136.62 136.07V143.461H133.892V126.854V126.848Z" fill="#1D1D1B"/>
<path d="M158.069 138.187C157.328 141.849 154.695 143.843 150.974 143.843C145.669 143.843 143.165 140.181 143.008 135.104C143.008 130.122 146.286 126.461 150.811 126.461C156.688 126.461 158.485 131.953 158.328 135.969H145.899C145.803 138.861 147.443 141.433 151.069 141.433C153.315 141.433 154.892 140.338 155.369 138.187H158.069ZM155.431 133.565C155.302 130.959 153.348 128.87 150.648 128.87C147.791 128.87 146.09 131.027 145.899 133.565H155.437H155.431Z" fill="#1D1D1B"/>
<path d="M172.84 126.848H176.152V129.258H172.84V139.575C172.84 140.827 173.193 141.052 174.894 141.052H176.146V143.461H174.058C171.229 143.461 170.106 142.882 170.106 139.827V129.258H167.282V126.848H170.106V121.867H172.834V126.848H172.84Z" fill="#1D1D1B"/>
<path d="M179.172 120.519H181.9V129.291H181.967C182.866 127.298 185.212 126.466 187.205 126.466C191.572 126.466 192.92 128.971 192.92 132.537V143.461H190.192V132.217C190.192 130.195 188.906 128.876 186.818 128.876C183.506 128.876 181.9 131.094 181.9 134.082V143.461H179.172V120.524V120.519Z" fill="#1D1D1B"/>
<path d="M210.192 138.187C209.457 141.849 206.824 143.843 203.097 143.843C197.797 143.843 195.294 140.181 195.131 135.104C195.131 130.122 198.409 126.461 202.939 126.461C208.817 126.461 210.608 131.953 210.451 135.969H198.022C197.926 138.861 199.566 141.433 203.192 141.433C205.443 141.433 207.009 140.338 207.492 138.187H210.187H210.192ZM207.56 133.565C207.43 130.959 205.477 128.87 202.777 128.87C199.919 128.87 198.218 131.027 198.022 133.565H207.56Z" fill="#1D1D1B"/>
<path d="M224.811 120.519H221.757V143.455H224.811V120.519Z" fill="#1D1D1B"/>
<path d="M228.977 126.848H231.548V129.482H231.609C232.766 127.427 234.63 126.461 237.01 126.461C241.377 126.461 242.724 128.966 242.724 132.532V143.455H239.996V132.212C239.996 130.19 238.711 128.87 236.622 128.87C233.316 128.87 231.705 131.088 231.705 134.076V143.455H228.977V126.848Z" fill="#1D1D1B"/>
<path d="M250.241 126.848H253.548V129.258H250.241V139.575C250.241 140.827 250.589 141.052 252.296 141.052H253.548V143.461H251.459C248.63 143.461 247.507 142.882 247.507 139.827V129.258H244.684V126.848H247.507V121.867H250.241V126.848Z" fill="#1D1D1B"/>
<path d="M270.214 138.187C269.478 141.849 266.84 143.843 263.118 143.843C257.819 143.843 255.31 140.181 255.152 135.104C255.152 130.122 258.431 126.461 262.955 126.461C268.833 126.461 270.629 131.953 270.472 135.969H258.043C257.948 138.861 259.582 141.433 263.214 141.433C265.459 141.433 267.031 140.338 267.514 138.187H270.208H270.214ZM267.581 133.565C267.452 130.959 265.493 128.87 262.798 128.87C259.941 128.87 258.24 131.027 258.043 133.565H267.581Z" fill="#1D1D1B"/>
<path d="M273.263 126.848H275.834V130.353H275.896C277.209 127.685 279.045 126.365 281.998 126.461V129.353C277.596 129.353 275.991 131.858 275.991 136.07V143.461H273.263V126.854V126.848Z" fill="#1D1D1B"/>
<path d="M284.344 126.848H286.915V129.482H286.977C288.139 127.427 289.997 126.461 292.377 126.461C296.744 126.461 298.092 128.966 298.092 132.532V143.455H295.363V132.212C295.363 130.19 294.078 128.87 291.99 128.87C288.683 128.87 287.072 131.088 287.072 134.076V143.455H284.344V126.848Z" fill="#1D1D1B"/>
<path d="M315.606 138.187C314.871 141.849 312.232 143.843 308.505 143.843C303.206 143.843 300.702 140.181 300.539 135.104C300.539 130.122 303.817 126.461 308.348 126.461C314.225 126.461 316.022 131.953 315.859 135.969H303.43C303.335 138.861 304.974 141.433 308.606 141.433C310.851 141.433 312.423 140.338 312.906 138.187H315.606ZM312.968 133.565C312.839 130.959 310.879 128.87 308.185 128.87C305.328 128.87 303.627 131.027 303.43 133.565H312.968Z" fill="#1D1D1B"/>
<path d="M322.32 126.848H325.627V129.258H322.32V139.575C322.32 140.827 322.674 141.052 324.375 141.052H325.627V143.461H323.539C320.715 143.461 319.587 142.882 319.587 139.827V129.258H316.769V126.848H319.587V121.867H322.32V126.848Z" fill="#1D1D1B"/>
<path d="M330 141.046H327.592V143.455H330V141.046Z" fill="#1D1D1B"/>
<path d="M89.6675 102.362C89.5047 100.823 88.4774 100.16 87.001 100.16C85.7997 100.16 84.5928 100.598 84.5928 101.997C84.5928 103.322 86.3106 103.519 88.0396 103.906C89.7574 104.299 91.4751 104.9 91.4751 107.006C91.4751 109.298 89.2353 110.219 87.2761 110.219C84.8622 110.219 82.8301 109.045 82.8301 106.422H84.1886C84.1886 108.225 85.6931 109.011 87.321 109.011C88.6122 109.011 90.0493 108.601 90.0493 107.051C90.0493 105.501 88.3315 105.321 86.6193 104.945C84.9015 104.569 83.1725 104.075 83.1725 102.098C83.1725 99.913 85.1148 98.9526 87.074 98.9526C89.269 98.9526 90.9418 99.9916 91.0317 102.356H89.6788L89.6675 102.362Z" fill="#1D1D1B"/>
<path d="M98.25 98.9526C101.669 98.9526 103.398 101.665 103.398 104.586C103.398 107.506 101.669 110.219 98.25 110.219C94.8313 110.219 93.0967 107.506 93.0967 104.586C93.0967 101.665 94.8313 98.9526 98.25 98.9526ZM98.25 109.017C100.872 109.017 101.966 106.759 101.966 104.591C101.966 102.423 100.866 100.166 98.25 100.166C95.6341 100.166 94.5338 102.423 94.5338 104.591C94.5338 106.759 95.6285 109.017 98.25 109.017Z" fill="#1D1D1B"/>
<path d="M105.627 99.2109H112.689V100.418H107.058V103.833H111.998V105.041H107.058V109.966H105.627V99.2109Z" fill="#1D1D1B"/>
<path d="M117.387 100.418H113.8V99.2109H122.4V100.418H118.818V109.966H117.387V100.418Z" fill="#1D1D1B"/>
<path d="M134.358 109.966H132.864L130.411 100.929H130.383L127.896 109.966H126.409L123.652 99.2109H125.112L127.223 108.158H127.251L129.659 99.2109H131.214L133.589 108.158H133.622L135.806 99.2109H137.232L134.358 109.966Z" fill="#1D1D1B"/>
<path d="M141.167 99.2109H142.75L146.949 109.966H145.366L144.193 106.731H139.645L138.439 109.966H136.968L141.167 99.2109ZM140.1 105.524H143.743L141.947 100.508H141.919L140.1 105.524Z" fill="#1D1D1B"/>
<path d="M148.543 99.2109H153.607C155.627 99.2109 156.874 100.306 156.874 102.03C156.874 103.328 156.301 104.395 155.01 104.76V104.788C156.262 105.029 156.514 105.95 156.621 107.006C156.711 108.056 156.649 109.236 157.25 109.977H155.656C155.251 109.539 155.476 108.382 155.263 107.326C155.111 106.276 154.853 105.383 153.466 105.383H149.974V109.977H148.543V99.2222V99.2109ZM152.961 104.164C154.297 104.164 155.448 103.816 155.448 102.249C155.448 101.199 154.875 100.413 153.534 100.413H149.98V104.164H152.961Z" fill="#1D1D1B"/>
<path d="M159.4 99.2109H166.827V100.418H160.837V103.833H166.417V105.041H160.837V108.764H166.872V109.966H159.4V99.2109Z" fill="#1D1D1B"/>
<path d="M176.309 100.418H172.728V99.2109H181.322V100.418H177.741V109.966H176.309V100.418Z" fill="#1D1D1B"/>
<path d="M183.057 99.2109H190.484V100.418H184.488V103.833H190.074V105.041H184.488V108.764H190.523V109.966H183.057V99.2109Z" fill="#1D1D1B"/>
<path d="M200.358 102.452C200.061 100.93 198.842 100.166 197.349 100.166C194.784 100.166 193.706 102.272 193.706 104.518C193.706 106.973 194.784 109.022 197.366 109.022C199.247 109.022 200.336 107.697 200.465 105.922H201.896C201.627 108.601 199.954 110.23 197.248 110.23C193.902 110.23 192.274 107.753 192.274 104.625C192.274 101.497 194.054 98.9639 197.366 98.9639C199.611 98.9639 201.464 100.171 201.79 102.457H200.358V102.452Z" fill="#1D1D1B"/>
<path d="M204.214 99.2109H205.64V103.833H211.304V99.2109H212.735V109.966H211.304V105.041H205.64V109.966H204.214V99.2109Z" fill="#1D1D1B"/>
<path d="M215.61 99.2109H217.132L222.796 107.933H222.824V99.2109H224.182V109.966H222.616L216.997 101.334H216.969V109.966H215.61V99.2109Z" fill="#1D1D1B"/>
<path d="M231.586 98.9526C235.005 98.9526 236.734 101.665 236.734 104.586C236.734 107.506 234.999 110.219 231.586 110.219C228.173 110.219 226.438 107.506 226.438 104.586C226.438 101.665 228.173 98.9526 231.586 98.9526ZM231.586 109.017C234.202 109.017 235.302 106.759 235.302 104.591C235.302 102.423 234.202 100.166 231.586 100.166C228.97 100.166 227.87 102.423 227.87 104.591C227.87 106.759 228.97 109.017 231.586 109.017Z" fill="#1D1D1B"/>
<path d="M238.89 99.2109H240.321V108.764H246.019V109.966H238.89V99.2109Z" fill="#1D1D1B"/>
<path d="M252.111 98.9526C255.529 98.9526 257.264 101.665 257.264 104.586C257.264 107.506 255.529 110.219 252.111 110.219C248.692 110.219 246.963 107.506 246.963 104.586C246.963 101.665 248.698 98.9526 252.111 98.9526ZM252.111 109.017C254.732 109.017 255.827 106.759 255.827 104.591C255.827 102.423 254.732 100.166 252.111 100.166C249.489 100.166 248.394 102.423 248.394 104.591C248.394 106.759 249.495 109.017 252.111 109.017Z" fill="#1D1D1B"/>
<path d="M267.593 108.629C266.762 109.758 265.415 110.224 264.146 110.224C260.935 110.224 259.026 107.602 259.026 104.799C259.026 101.665 260.739 98.9583 264.146 98.9583C266.493 98.9583 268.362 100.014 268.766 102.53H267.335C267.043 100.901 265.74 100.166 264.14 100.166C261.536 100.166 260.452 102.423 260.452 104.732C260.452 107.04 261.743 109.022 264.14 109.022C266.352 109.022 267.677 107.467 267.587 105.512H264.152V104.305H268.867V109.972H267.963L267.587 108.629H267.593Z" fill="#1D1D1B"/>
<path d="M273.01 99.2109H271.578V109.966H273.01V99.2109Z" fill="#1D1D1B"/>
<path d="M275.963 99.2109H283.39V100.418H277.394V103.833H282.98V105.041H277.394V108.764H283.429V109.966H275.963V99.2109Z" fill="#1D1D1B"/>
<path d="M291.923 102.362C291.754 100.823 290.733 100.16 289.262 100.16C288.055 100.16 286.848 100.598 286.848 101.997C286.848 103.322 288.566 103.519 290.3 103.906C292.012 104.299 293.736 104.9 293.736 107.006C293.736 109.298 291.49 110.219 289.531 110.219C287.123 110.219 285.091 109.045 285.091 106.422H286.444C286.444 108.225 287.948 109.011 289.576 109.011C290.867 109.011 292.299 108.601 292.299 107.051C292.299 105.501 290.587 105.321 288.863 104.945C287.151 104.569 285.422 104.075 285.422 102.098C285.422 99.913 287.359 98.9526 289.318 98.9526C291.518 98.9526 293.191 99.9916 293.281 102.356H291.923V102.362Z" fill="#1D1D1B"/>
<path d="M300.489 99.2109H301.921V108.764H307.607V109.966H300.489V99.2109Z" fill="#1D1D1B"/>
<path d="M310.554 100.418H306.967V99.2109H315.567V100.418H311.98V109.966H310.554V100.418Z" fill="#1D1D1B"/>
<path d="M317.296 99.2109H320.984C324.296 99.2109 326.149 100.868 326.149 104.333C326.149 107.798 324.566 109.966 320.984 109.966H317.296V99.2109ZM318.727 108.764H321.102C322.084 108.764 324.723 108.494 324.723 104.529C324.723 101.968 323.768 100.418 321.136 100.418H318.727V108.764Z" fill="#1D1D1B"/>
<path d="M328.984 108.298H327.312V109.971H328.984V108.298Z" fill="#1D1D1B"/>
<path d="M324.808 58.3589C326.34 58.3589 327.626 59.572 327.626 61.1614C327.626 62.7507 326.34 63.9919 324.808 63.9919C323.275 63.9919 321.973 62.7788 321.973 61.1614C321.973 59.5439 323.264 58.3589 324.808 58.3589ZM324.808 63.5763C326.104 63.5763 327.12 62.5373 327.12 61.1614C327.12 59.7854 326.11 58.7745 324.808 58.7745C323.505 58.7745 322.483 59.8135 322.483 61.1614C322.483 62.5092 323.488 63.5763 324.808 63.5763ZM323.707 59.5271H324.982C325.767 59.5271 326.132 59.8359 326.132 60.4706C326.132 61.0659 325.756 61.313 325.262 61.3635L326.205 62.8181H325.655L324.763 61.4029H324.218V62.8181H323.707V59.5271ZM324.218 60.9873H324.751C325.201 60.9873 325.616 60.9648 325.616 60.4481C325.616 60.01 325.24 59.9427 324.897 59.9427H324.218V60.9873Z" fill="#1D1D1B"/>
</g>
<defs>
<clipPath id="clip0_79_142">
<rect width="323" height="88" fill="white" transform="translate(7 56)"/>
</clipPath>
</defs>
</svg>
