<svg width="340" height="200" viewBox="0 0 340 200" fill="none" xmlns="http://www.w3.org/2000/svg">
<g clip-path="url(#clip0_79_252)">
<path fill-rule="evenodd" clip-rule="evenodd" d="M0 79.396C0.283185 79.4072 0.56637 79.4295 0.855108 79.4295C14.3036 79.4295 27.7522 79.4295 41.2007 79.4295H42.0947V87.9765H9.38398V94.4481H37.5304V102.705H9.37288V117.729C9.16743 117.757 9.02306 117.796 8.87869 117.796C6.02463 117.796 3.17612 117.796 0.322054 117.796C0.216553 117.796 0.1055 117.768 0 117.752L0 79.396Z" fill="black"/>
<path fill-rule="evenodd" clip-rule="evenodd" d="M81.0851 79C81.0906 82.2581 81.1017 85.5163 81.1184 88.7744C81.1184 89.1091 80.9796 89.2653 80.6464 89.2486C80.5576 89.2486 80.4687 89.2486 80.3854 89.2486C75.8489 89.2486 71.3124 89.2374 66.7759 89.2598C66.1484 89.2598 65.9597 89.0868 65.9652 88.4452C65.9874 85.2987 65.9652 82.1466 65.9541 79H81.0906H81.0851Z" fill="#EE3026"/>
<path fill-rule="evenodd" clip-rule="evenodd" d="M94.9056 79C95.8495 79.6527 96.9156 80.1827 97.7097 80.9861C99.7531 83.0448 100.675 85.6502 100.897 88.5233C100.936 89.0533 100.769 89.2709 100.208 89.2709C95.4997 89.2542 90.7855 89.2598 86.0769 89.2709C85.5216 89.2709 85.3217 89.0924 85.3328 88.501C85.3606 85.5944 85.3439 82.6877 85.3439 79.7866C85.3439 79.5244 85.3162 79.2622 85.2939 79H94.9056Z" fill="#EE3026"/>
<path fill-rule="evenodd" clip-rule="evenodd" d="M61.7349 79C61.7238 82.1298 61.696 85.2596 61.7238 88.3839C61.7238 89.0422 61.5627 89.2598 60.8909 89.2598C56.2211 89.2374 51.5458 89.2486 46.876 89.2486C46.5761 89.2486 46.2707 89.3044 46.2263 88.819C45.932 85.5999 48.6084 80.8132 51.5013 79.4184C51.7956 79.2734 52.0899 79.1395 52.3898 79H61.7349Z" fill="#EE3026"/>
<path fill-rule="evenodd" clip-rule="evenodd" d="M334.863 120C333.725 119.727 332.665 119.325 331.859 118.393C330.61 116.948 330.344 114.756 331.249 113.093C332.215 111.325 334.131 110.404 336.185 110.739C337.984 111.035 339.506 112.546 339.872 114.41C339.9 114.555 339.955 114.7 339.994 114.845V115.771C339.95 115.938 339.9 116.106 339.861 116.273C339.5 117.824 338.6 118.946 337.146 119.576C336.674 119.782 336.146 119.866 335.646 120.006H334.858L334.863 120ZM335.374 111.247C333.148 111.219 331.321 112.982 331.276 115.191C331.238 117.517 333.053 119.42 335.324 119.414C337.534 119.414 339.389 117.562 339.411 115.336C339.433 113.115 337.618 111.274 335.369 111.247H335.374Z" fill="black"/>
<path fill-rule="evenodd" clip-rule="evenodd" d="M147.351 100.898C149.094 101.762 149.866 103.28 149.911 105.082C150.005 109.199 149.966 113.322 149.977 117.445C149.977 117.528 149.955 117.612 149.933 117.746H140.932V117.026C140.932 113.06 140.932 109.093 140.932 105.126C140.932 103.564 140.321 102.906 138.789 102.8C138.111 102.755 137.434 102.727 136.751 102.722C130.476 102.722 124.202 102.722 117.933 102.722H117.083V117.746H107.771V79.4295H108.549C118.177 79.4295 127.805 79.4184 137.434 79.4407C139.472 79.4407 141.504 79.6081 143.486 80.1716C147.195 81.226 149.594 83.5803 150.072 87.4633C150.383 90.0519 150.394 92.6964 150.283 95.3018C150.194 97.26 149.172 98.9393 147.806 100.356C147.667 100.501 147.528 100.641 147.395 100.78C147.384 100.797 147.384 100.819 147.362 100.898H147.351ZM117.111 94.4426C117.344 94.4538 117.539 94.4705 117.733 94.4705C124.118 94.4705 130.498 94.4705 136.884 94.4705C137.717 94.4705 138.55 94.4315 139.377 94.3366C140.338 94.2306 141.01 93.4886 141.049 92.5179C141.082 91.6587 141.076 90.7995 141.049 89.9404C141.015 89.0087 140.421 88.3001 139.516 88.1272C139.027 88.0324 138.517 87.9989 138.011 87.9989C131.276 87.9933 124.54 87.9989 117.805 87.9989C117.572 87.9989 117.344 88.0212 117.105 88.0324V94.4538L117.111 94.4426Z" fill="black"/>
<path fill-rule="evenodd" clip-rule="evenodd" d="M260.353 117.757V79.4797H297.844V87.9654H269.681V94.4705H289.249V102.716H269.675V109.244H298.005V117.757H260.353Z" fill="black"/>
<path fill-rule="evenodd" clip-rule="evenodd" d="M220.479 87.9877V117.757H211.156V79.4295H211.873C221.679 79.4295 231.485 79.4184 241.29 79.4295C243.55 79.4351 245.738 79.8926 247.77 80.9303C251.002 82.5816 252.657 85.399 253.356 88.8245C253.667 90.3476 253.812 91.9265 253.817 93.4774C253.862 101.344 253.834 109.216 253.834 117.088C253.834 117.3 253.812 117.512 253.801 117.763H244.472V116.759C244.472 108.602 244.478 100.446 244.461 92.2947C244.461 91.4913 244.356 90.6656 244.178 89.879C243.917 88.7297 243.034 88.222 241.957 88.0044C241.724 87.9598 241.474 87.9598 241.235 87.9598C234.544 87.9598 227.853 87.9598 221.162 87.9598C220.968 87.9598 220.773 87.9765 220.485 87.9877H220.479Z" fill="black"/>
<path fill-rule="evenodd" clip-rule="evenodd" d="M164.02 87.999H155.247V79.4631H190.157V87.9767H173.365V117.752H164.02V87.999Z" fill="black"/>
<path fill-rule="evenodd" clip-rule="evenodd" d="M302.492 88.01V79.4797H337.457V87.9821H320.638V117.746H311.31V88.01H302.492Z" fill="black"/>
<path fill-rule="evenodd" clip-rule="evenodd" d="M204.115 117.763H194.848V79.4797H204.115V117.763Z" fill="black"/>
<path fill-rule="evenodd" clip-rule="evenodd" d="M93.0849 103.698C90.7417 103.698 88.3985 103.687 86.0553 103.709C85.5278 103.709 85.3334 103.57 85.339 103.006C85.3612 100.033 85.3612 97.0649 85.339 94.0913C85.339 93.6003 85.4833 93.4441 85.9775 93.4441C90.7528 93.4608 95.5281 93.4608 100.303 93.4441C100.731 93.4441 100.898 93.5947 100.898 94.0131C100.892 97.0537 100.892 100.089 100.898 103.124C100.898 103.598 100.692 103.709 100.248 103.704C97.8602 103.687 95.4726 103.698 93.0849 103.698Z" fill="#EE3026"/>
<path fill-rule="evenodd" clip-rule="evenodd" d="M61.6735 93.4997V103.653C61.4292 103.67 61.2182 103.687 61.0072 103.687C56.3374 103.687 51.6676 103.676 46.9979 103.698C46.376 103.698 46.226 103.503 46.2316 102.911C46.2594 99.9825 46.2538 97.0535 46.2371 94.119C46.2371 93.6057 46.376 93.4328 46.909 93.4384C51.6454 93.4551 56.3818 93.4495 61.1183 93.4495C61.2904 93.4495 61.4625 93.4774 61.6791 93.4942L61.6735 93.4997Z" fill="#EE3026"/>
<path fill-rule="evenodd" clip-rule="evenodd" d="M66.0039 118.092V108.016C66.2482 108 66.4814 107.972 66.7146 107.972C71.2789 107.972 75.8377 107.983 80.4019 107.955C81.0016 107.955 81.1349 108.156 81.1349 108.708C81.1182 111.615 81.1238 114.527 81.1349 117.439C81.1349 117.847 81.1349 118.142 80.563 118.137C75.8265 118.114 71.0846 118.126 66.3482 118.126C66.2649 118.126 66.176 118.103 66.0095 118.087L66.0039 118.092Z" fill="#EE3026"/>
<path fill-rule="evenodd" clip-rule="evenodd" d="M85.3828 118.142V108.027C85.6049 108.005 85.8159 107.977 86.0269 107.977C90.7411 107.977 95.4553 107.988 100.17 107.966C100.758 107.966 100.958 108.15 100.902 108.719C100.547 112.379 99.2922 115.548 96.0661 117.64C95.4997 118.008 94.8945 118.159 94.206 118.153C91.5074 118.125 88.8088 118.142 86.1158 118.142H85.3828Z" fill="#EE3026"/>
<path fill-rule="evenodd" clip-rule="evenodd" d="M61.6729 108.028V118.098C61.4397 118.109 61.2064 118.131 60.9732 118.131C58.4968 118.131 56.0147 118.036 53.5382 118.165C51.8225 118.254 50.5731 117.512 49.4737 116.396C47.6913 114.583 46.764 112.323 46.3587 109.835C46.2643 109.261 46.242 108.669 46.1865 108.028H61.6673H61.6729Z" fill="#EE3026"/>
<path fill-rule="evenodd" clip-rule="evenodd" d="M334.258 115.593V117.702C334.036 117.719 333.853 117.73 333.631 117.746V112.614C334.525 112.614 335.38 112.591 336.23 112.625C336.751 112.647 337.235 112.815 337.412 113.395C337.59 113.969 337.595 114.522 337.129 114.99C337.068 115.046 337.018 115.119 337.157 115.163C337.323 116 337.484 116.837 337.645 117.679C337.096 117.864 336.857 117.735 336.807 117.144C336.685 115.721 336.974 115.509 335.052 115.554C334.797 115.559 334.547 115.576 334.258 115.593ZM334.297 114.94C334.941 114.94 335.513 114.962 336.074 114.929C336.568 114.901 336.79 114.561 336.818 114.087C336.84 113.663 336.685 113.306 336.246 113.266C335.608 113.211 334.963 113.255 334.292 113.255V114.94H334.297Z" fill="black"/>
</g>
<defs>
<clipPath id="clip0_79_252">
<rect width="340" height="41" fill="white" transform="translate(0 79)"/>
</clipPath>
</defs>
</svg>
