<svg width="340" height="200" viewBox="0 0 340 200" fill="none" xmlns="http://www.w3.org/2000/svg">
<g clip-path="url(#clip0_79_273)">
<path d="M127.455 88.8355H120.168V123.322H127.455V109.339H143.441V123.322H150.495V88.8355H143.441V102.818H127.455V88.8355ZM183.408 108.642C183.408 114.234 180.585 117.263 175.413 117.263C170.241 117.263 167.419 114.234 167.419 108.41V88.8355H160.365V108.642C160.365 118.427 165.774 124.02 175.41 124.02C185.046 124.02 190.455 118.427 190.455 108.407V88.8321H183.401V108.638L183.408 108.642ZM251.586 88.8355L243.591 112.604L235.834 88.8355H228.31L240.535 123.322H246.411L254.406 100.718L262.163 123.322H268.276L280.265 88.8355H272.978L265.22 112.604L257.225 88.8355H251.583H251.586ZM305.894 102.117H292.964V95.1255H311.773V88.8355H285.911V123.322H312.477V117.032H292.964V108.41H305.894V102.12V102.117ZM320.939 88.8355H327.993V123.322H320.939V88.8355ZM220.315 116.099L223.371 123.322H230.895L215.613 88.8355L215.38 88.604H209.267L193.985 123.325H201.272L204.329 116.569L204.562 116.103H220.315V116.099ZM212.32 97.4571L217.258 109.108L217.492 109.806H206.678L206.911 109.108L212.32 97.4571Z" fill="#262729"/>
<path d="M50.5782 119.826C50.5782 119.826 50.8117 119.595 50.5782 119.595C39.764 96.293 24.9525 78.3487 24.9525 78.3487C24.9525 78.3487 16.9578 85.8062 17.4283 93.4952C17.6618 99.3189 22.1296 102.583 22.1296 102.583C29.1834 109.339 46.1103 117.961 50.1077 119.826H50.5782ZM47.7553 125.65C47.7553 125.419 47.2848 125.419 47.2848 125.419L19.0732 126.351C22.1296 131.712 27.3015 135.905 32.7103 134.741C36.4707 133.809 44.9359 127.985 47.5218 126.12C47.9923 125.653 47.7553 125.653 47.7553 125.653M48.2258 123.09C48.4593 122.859 48.2258 122.624 48.2258 122.624C35.7667 114.234 11.786 101.65 11.786 101.65C9.67053 108.407 12.49 113.768 12.49 113.768C15.5464 120.293 21.4222 122.158 21.4222 122.158C24.0081 123.322 26.831 123.322 26.831 123.322H47.9888C48.2224 123.322 48.2224 123.09 48.2224 123.09M50.1077 66.2315C48.9332 66.2315 45.6399 67.1641 45.6399 67.1641C38.1156 69.0293 36.4707 75.7857 36.4707 75.7857C35.0592 79.979 36.4707 84.6387 36.4707 84.6387C39.0566 95.5919 51.2822 113.764 53.8681 117.495L54.1016 117.726C54.3352 117.726 54.3352 117.495 54.3352 117.495C58.5729 76.7183 50.1077 66.2315 50.1077 66.2315ZM59.5104 117.495C59.7439 117.495 59.9809 117.263 59.9809 117.263C62.8038 113.301 74.7924 95.3604 77.3783 84.4073C77.3783 84.4073 78.7898 79.0464 77.3783 75.5542C77.3783 75.5542 75.4964 68.7978 67.9756 66.9326C67.9756 66.9326 65.8602 66.4663 63.5078 66C63.5078 66 55.0426 76.7183 59.2769 117.032C59.2769 117.498 59.5104 117.498 59.5104 117.498M66.0937 125.422C66.0937 125.422 65.8602 125.422 65.8602 125.653V126.12C68.683 127.985 76.6743 133.809 80.6717 134.741C80.6717 134.741 87.959 137.304 94.3087 126.351L66.0971 125.419L66.0937 125.422ZM102.063 101.422C102.063 101.422 78.0823 114.237 65.6232 122.628C65.6232 122.628 65.3897 122.859 65.3897 123.094C65.3897 123.094 65.3897 123.325 65.6232 123.325H87.2515C87.2515 123.325 89.367 123.325 92.1898 122.161C92.1898 122.161 98.0657 120.296 101.359 113.54C101.359 113.308 104.182 107.947 102.063 101.422ZM63.2708 119.83C63.2708 119.83 63.5043 120.061 63.7413 119.83C67.7387 117.733 84.6656 109.343 91.7194 102.586C91.7194 102.586 96.1872 99.0909 96.4207 93.4986C96.8912 85.5747 88.8965 78.3521 88.8965 78.3521C88.8965 78.3521 74.085 95.8267 63.2708 119.363C63.2708 119.363 63.0373 119.595 63.2708 119.83Z" fill="#CF0A2C"/>
</g>
<defs>
<clipPath id="clip0_79_273">
<rect width="317" height="69" fill="white" transform="translate(11 66)"/>
</clipPath>
</defs>
</svg>
