<svg width="274" height="49" viewBox="0 0 274 49" fill="none" xmlns="http://www.w3.org/2000/svg">
<path d="M7.77177 17.5488C8.67546 16.7132 9.51891 15.8776 10.8443 16.7132C10.7841 16.8922 10.8443 17.1907 10.7238 17.2503C7.53078 19.757 6.02463 23.0396 5.6029 27.0384C5.42216 29.1273 4.8197 31.2162 4.39798 33.3051C4.57872 33.4245 4.75945 33.4842 4.94019 33.6036C5.42216 33.1858 5.84389 32.7083 6.56684 32.0518C6.68733 33.0664 6.74758 33.902 6.86807 34.9763C7.47054 35.2747 8.25374 35.6328 8.97669 36.0506C12.0493 34.5585 10.4226 32.0518 10.7238 30.0226C10.1816 29.7241 9.75989 29.4854 9.15743 29.187C12.9529 25.9641 16.6882 22.8606 20.4837 19.6377C18.8571 17.2503 16.2665 16.5341 14.0374 15.2211C18.7366 10.5658 29.3399 11.0433 37.2322 16.3551C34.4006 15.7583 32.2318 15.2211 29.9424 14.9227C27.5928 14.6243 25.1829 14.5646 22.8333 14.4452C22.7128 14.863 22.5923 15.1017 22.7128 15.2211C23.6165 16.3551 24.8817 17.4294 24.219 19.1602C23.3755 21.5475 23.1346 24.3526 20.544 25.7254C18.6161 26.74 16.5677 27.5755 14.5193 28.4111C12.1095 29.4257 11.748 29.9629 12.0493 32.4696C12.1095 32.768 12.1095 33.0664 12.23 33.3648C12.6517 34.7375 12.5915 35.9909 11.1456 36.7071C9.6394 37.4233 8.13324 38.5573 6.44635 37.1846C5.66315 36.5877 4.87995 35.9312 4.15699 35.2747C3.13281 34.3794 3.01231 33.3648 3.31354 32.0518C4.09675 28.3514 4.94019 24.6511 5.6029 20.9507C6.14512 17.6681 6.92832 14.5646 9.45866 11.5804C7.2898 11.103 5.36192 10.9836 3.73527 10.2674C1.98813 9.4915 1.02419 7.82037 0 5.79114C4.27748 6.56702 8.49472 5.73145 11.989 8.53657C9.45866 8.23815 6.92832 7.88005 4.33773 7.58164C4.27748 7.701 4.21724 7.76069 4.21724 7.88005C6.3861 9.01404 8.55497 10.2077 10.4226 11.2223C9.51891 13.4903 8.67546 15.5195 7.77177 17.5488Z" fill="#ED1C24"/>
<path d="M53.7997 48.7035C47.6546 48.7035 42.0517 48.7035 36.4488 48.7035C35.9066 48.7035 35.2439 48.5244 34.7619 48.1663C31.6894 45.9581 28.6168 43.7498 25.5442 41.4818C24.0381 40.4075 23.6766 38.9751 24.2791 37.2443C24.7008 36.0506 25.002 34.7973 25.3635 33.4246C29.0385 33.0068 32.6533 32.589 36.2078 32.1712C36.6296 25.606 31.9906 22.6219 28.1348 18.9215C30.6049 19.6377 33.075 20.2942 35.4849 21.1895C36.2078 21.4282 36.9308 22.3235 37.1718 23.0397C39.7624 31.7534 39.5214 30.0226 47.1124 32.1115C47.2931 32.1712 47.4136 32.3503 48.1366 32.768C40.9673 33.6633 34.2197 34.4989 27.4119 35.3941C27.2311 36.5281 27.0504 37.483 26.8697 38.4976C30.3639 40.8253 33.7377 43.1529 37.1718 45.4209C38.6177 46.3758 40.1238 46.3758 44.5218 45.8984C44.1001 44.8837 43.6784 43.9288 43.2566 42.8545C46.4497 42.019 49.1005 42.4367 51.0284 45.3612C51.6911 46.4355 52.6551 47.3308 53.7997 48.7035Z" fill="#ED1C24"/>
<path d="M67.9578 9.79004C64.6442 9.79004 61.3909 9.73036 58.0774 9.79004C53.077 9.90941 48.0765 10.0885 43.0761 10.1481C41.6904 10.1481 40.3047 9.96909 38.9191 9.61099C36.69 9.07384 34.5211 8.35764 32.292 7.34303C35.3043 6.80588 38.3166 6.14936 41.3892 5.6719C44.5822 5.25411 47.715 4.71696 50.9081 4.35886C52.6552 4.17981 54.5229 4.12013 56.2098 4.53791C60.3668 5.61221 64.2828 7.34303 67.9578 9.79004Z" fill="url(#paint0_linear_79_355)"/>
<path d="M244.841 28.7076C244.239 30.14 243.696 31.274 243.034 32.7661C236.648 32.7661 230.261 32.7661 223.815 32.7661C222.008 36.7052 220.201 40.7636 218.393 44.7624C219.598 44.7624 220.502 44.7624 221.225 44.7624C223.514 44.7624 225.863 44.7624 228.153 44.7624C231.707 44.7624 231.707 44.7624 232.912 40.883C230.261 40.883 227.731 40.883 224.659 40.883C225.321 39.2118 225.863 38.0182 226.345 36.7648C231.225 36.7648 235.985 36.7648 241.226 36.7648C239.6 40.1668 238.334 43.2106 236.708 46.1351C235.623 48.1047 233.575 48.9402 231.346 48.9402C226.647 48.9999 221.947 48.9999 217.188 48.9402C216.405 48.9402 215.561 48.7015 214.838 48.4031C212.73 47.5675 211.826 45.8964 212.73 43.8671C214.477 39.749 216.405 35.6905 218.393 31.6918C219.297 29.9013 220.863 28.827 222.911 28.5882C223.695 28.4689 224.478 28.3495 225.321 28.3495C230.924 28.3495 236.527 28.3495 242.19 28.3495C242.973 28.3495 243.757 28.5285 244.841 28.7076Z" fill="#181818"/>
<path d="M102.359 49C100.13 49 97.9608 49.0597 95.7317 48.9403C94.4666 48.8806 93.1411 48.6419 91.9362 48.1644C89.9481 47.3289 89.2854 45.4787 90.1288 43.5091C91.8157 39.6894 93.5026 35.8697 95.3702 32.1693C96.2739 30.3191 97.9006 29.0658 100.009 28.7077C101.214 28.5286 102.419 28.3496 103.564 28.3496C107.179 28.2899 110.793 28.2899 114.408 28.3496C115.432 28.3496 116.396 28.4093 117.42 28.5883C121.457 29.2448 122.602 31.2144 120.915 34.8551C119.469 38.0183 117.902 41.1218 116.577 44.3447C115.191 47.6273 112.661 49 109.287 49C106.998 49 104.648 49 102.359 49ZM95.7317 44.7623C96.3947 44.7623 97.0574 44.7028 97.2983 44.7028C100.973 44.7625 104.769 44.7623 108.444 44.7623C109.589 44.7623 110.311 43.9269 110.733 42.972C111.697 40.8234 112.721 38.6748 113.745 36.4665C114.227 35.4519 114.589 34.3776 115.191 32.9452C110.432 32.9452 106.034 32.9452 101.576 32.9452C99.8285 36.6456 97.4789 41.0023 95.7317 44.7623Z" fill="#181818"/>
<path d="M182.124 32.7661C176.04 32.7661 170.075 32.7661 164.111 32.7661C163.629 33.6614 163.207 34.1985 162.966 34.855C162.785 35.2131 162.785 35.5712 162.665 36.3471C163.81 36.4068 164.774 36.5261 165.677 36.5261C168.268 36.5261 170.919 36.4665 173.509 36.5858C174.473 36.6455 175.497 36.8246 176.401 37.2423C178.148 38.0182 178.811 39.6297 178.088 41.4799C177.485 43.151 176.702 44.7624 175.738 46.3142C174.714 48.1047 172.847 48.8806 170.919 48.9403C164.472 49 157.966 48.9403 151.399 48.9403C151.098 47.2095 152.122 46.1948 152.785 44.7624C155.978 44.7624 159.171 44.7624 162.364 44.7624C164.292 44.7624 166.159 44.7624 168.087 44.7624C171.039 44.7028 171.16 44.6431 172.244 41.3008C171.642 41.1218 170.979 40.8233 170.376 40.8233C167.545 40.7637 164.774 40.8233 161.942 40.7637C160.978 40.7637 159.894 40.704 158.99 40.3459C156.881 39.6297 156.038 37.8989 156.821 35.8696C157.423 34.3179 158.026 32.6467 159.05 31.3337C159.954 30.2594 161.339 29.4835 162.605 28.827C163.388 28.4689 164.352 28.4092 165.255 28.4092C170.858 28.3495 176.522 28.4092 182.124 28.4092C182.606 28.4092 183.088 28.5883 183.992 28.7076C183.329 30.0803 182.787 31.274 182.124 32.7661Z" fill="#181818"/>
<path d="M140.675 41.9573C142.241 44.5237 143.386 46.4335 144.771 48.7015C142.542 48.7015 140.735 48.7015 138.566 48.7015C137.18 46.6723 135.734 44.464 134.168 42.1363C132.722 42.1363 131.216 42.1363 129.469 42.1363C128.445 44.2849 127.36 46.4932 126.216 48.8209C124.408 48.8209 122.661 48.8209 120.492 48.8209C121.878 44.9415 123.685 41.4798 125.493 37.7198C131.818 37.7198 138.084 37.7198 144.591 37.7198C145.314 36.168 145.916 34.7953 146.82 32.8854C140.373 32.4677 134.409 32.9451 127.963 32.587C128.625 31.0353 129.107 29.9013 129.529 28.9463C129.891 28.7076 130.071 28.5286 130.252 28.5286C136.156 28.4689 142.06 28.4689 148.025 28.4689C148.507 28.4689 149.049 28.5882 149.531 28.7076C152.121 29.4238 153.085 31.274 152.182 33.721C151.579 35.2728 150.796 36.7648 150.073 38.3166C148.989 40.6443 147.121 41.7186 144.591 41.8976C143.446 42.017 142.362 41.9573 140.675 41.9573Z" fill="#181818"/>
<path d="M213.754 28.7076C210.621 35.5115 207.609 42.0766 204.536 48.7612C202.729 48.7612 200.982 48.7612 198.933 48.7612C199.717 46.911 200.379 45.1802 201.223 43.2703C197.006 43.2703 193.029 43.2703 188.812 43.2703C187.969 45.0011 187.005 46.8513 186.041 48.8208C184.354 48.8208 182.667 48.8208 180.498 48.8208C182.064 45.4189 183.45 42.2557 184.956 38.9134C191.041 38.9134 197.126 38.9134 203.271 38.9134C204.175 36.8842 205.018 35.0937 205.982 32.8854C199.897 32.4676 194.174 32.9451 188.029 32.587C188.933 30.5577 190.077 29.3641 191.885 28.8269C192.849 28.5285 193.873 28.4091 194.837 28.4091C200.44 28.3495 206.042 28.3495 211.706 28.4091C212.248 28.3495 212.85 28.5285 213.754 28.7076Z" fill="#181818"/>
<path d="M251.467 40.8233C250.925 42.017 250.323 43.33 249.72 44.7624C255.142 44.7624 260.745 44.7624 266.288 44.7624C265.746 46.1948 265.203 47.866 264.782 48.9403C261.167 48.9403 244.298 48.9403 241.587 48.9403C243.334 45.0609 245.563 40.6443 247.371 36.7052C253.034 36.7052 258.757 36.7052 264.48 36.7052C264.24 37.4214 263.999 37.9585 263.758 38.4957C263.456 39.2119 263.035 39.8684 262.553 40.7637C258.817 40.8234 255.142 40.8233 251.467 40.8233Z" fill="#181818"/>
<path d="M79.7664 40.7637C75.9106 40.7637 72.3561 40.7637 68.6208 40.7637C67.3557 43.4494 66.0905 46.0755 64.7651 48.7612C63.0179 48.7612 61.2106 48.7612 58.9814 48.7612C59.9454 46.6126 60.8491 44.5834 61.7528 42.5542C62.6565 40.5846 63.5602 38.6151 64.5241 36.6455C70.1872 36.6455 75.6094 36.6455 81.5135 36.6455C80.9111 38.1973 80.4291 39.3313 79.7664 40.7637Z" fill="#181818"/>
<path d="M249.299 32.587C250.022 30.9756 250.504 29.8416 251.046 28.5286C258.637 28.5286 266.168 28.5286 274 28.5286C273.759 29.2448 273.638 29.6625 273.458 30.0803C273.096 30.8562 272.674 31.6321 272.253 32.5273C264.722 32.587 257.251 32.587 249.299 32.587Z" fill="#181818"/>
<path d="M66.3916 32.7064C67.235 30.9159 67.8976 29.3641 68.3796 28.3495C71.6932 28.3495 88.5017 28.3495 90.972 28.3495C90.4297 29.5432 90.0081 31.274 89.3454 32.7064C81.9351 32.7661 74.5248 32.7661 66.3916 32.7064Z" fill="#181818"/>
<path d="M34.2203 37.9007C36.3289 39.3928 37.8953 40.467 39.4015 41.4817C36.2687 40.5267 33.1359 39.5718 30.4248 36.707C32.1117 36.4683 33.3166 35.9908 34.5216 36.1102C39.1003 36.4683 43.7392 36.6473 48.1975 37.5426C51.1495 38.1394 53.0172 37.4232 54.5233 35.0956C54.8245 34.6181 55.2463 34.2003 55.9692 33.3051C56.8127 35.5133 57.4754 37.3635 58.2586 39.4524C56.5114 40.2283 55.0655 41.1833 53.4389 41.601C52.4147 41.8995 51.1495 41.601 50.0048 41.3026C45.3659 40.2283 40.6667 39.0347 36.0277 37.9007C35.7265 37.841 35.3048 37.9007 34.2203 37.9007Z" fill="#ED1C24"/>
<path d="M81.9347 24.7108C80.8503 24.293 79.7056 23.8753 78.6814 23.3381C72.717 20.3539 66.6322 17.5488 59.9448 16.2358C55.7878 15.4599 51.8116 15.5196 47.8956 17.131C46.3894 17.7876 44.7628 18.265 43.0156 18.3844C44.2206 16.952 45.4857 15.5196 46.6906 14.1469C47.7148 13.0129 48.98 12.7742 50.4862 12.7145C57.1133 12.7145 63.4391 14.0275 69.4035 16.8326C73.2592 18.6828 76.874 21.0701 80.549 23.2784C81.031 23.6365 81.3925 24.293 81.9347 24.7108Z" fill="#ED1C24"/>
<path d="M31.3883 2.50854C27.9543 4.95555 25.183 6.9251 21.1465 6.14922C18.9776 5.73143 16.628 6.08953 14.0977 6.08953C16.146 4.35872 18.0739 2.68758 20.2428 0.837402C23.6166 1.31487 27.2313 1.85202 31.3883 2.50854Z" fill="url(#paint1_linear_79_355)"/>
<path d="M46.3291 1.85192C39.943 4.59735 33.9786 6.5669 27.5322 6.68626C33.0749 3.04558 38.8585 0.419516 46.3291 1.85192Z" fill="url(#paint2_linear_79_355)"/>
<defs>
<linearGradient id="paint0_linear_79_355" x1="59.71" y1="4.26338" x2="42.006" y2="9.57777" gradientUnits="userSpaceOnUse">
<stop stop-color="#F16521"/>
<stop offset="1" stop-color="#ED1C24"/>
</linearGradient>
<linearGradient id="paint1_linear_79_355" x1="30.6975" y1="0.77773" x2="18.1221" y2="5.35124" gradientUnits="userSpaceOnUse">
<stop stop-color="#F16929"/>
<stop offset="1" stop-color="#ED1C24"/>
</linearGradient>
<linearGradient id="paint2_linear_79_355" x1="43.4451" y1="1.50378" x2="34.011" y2="4.67658" gradientUnits="userSpaceOnUse">
<stop stop-color="#F16521"/>
<stop offset="1" stop-color="#ED1C24"/>
</linearGradient>
</defs>
</svg>
