<svg width="135" height="13" viewBox="0 0 135 13" fill="none" xmlns="http://www.w3.org/2000/svg">
<path d="M116.667 0.252859C116.289 1.15199 115.948 1.86381 115.532 2.80041C111.524 2.80041 107.515 2.80041 103.468 2.80041C102.334 5.27303 101.2 7.82058 100.065 10.3307C100.821 10.3307 101.388 10.3307 101.842 10.3307C103.279 10.3307 104.754 10.3307 106.191 10.3307C108.423 10.3307 108.423 10.3307 109.179 7.89551C107.515 7.89551 105.927 7.89551 103.998 7.89551C104.414 6.84652 104.754 6.09724 105.057 5.3105C108.12 5.3105 111.108 5.3105 114.398 5.3105C113.377 7.44594 112.582 9.35661 111.561 11.1923C110.881 12.4287 109.595 12.9531 108.196 12.9531C105.246 12.9906 102.296 12.9906 99.3085 12.9531C98.8169 12.9531 98.2875 12.8033 97.8337 12.616C96.5101 12.0915 95.9428 11.0425 96.5101 9.76871C97.6068 7.18369 98.8169 4.63614 100.065 2.12606C100.632 1.00214 101.615 0.327789 102.901 0.177933C103.393 0.103005 103.884 0.0280762 104.414 0.0280762C107.931 0.0280762 111.448 0.0280762 115.003 0.0280762C115.494 0.0280762 115.986 0.140468 116.667 0.252859Z" fill="#181818"/>
<path d="M27.228 12.9906C25.8288 12.9906 24.4673 13.0281 23.0681 12.9532C22.2739 12.9157 21.442 12.7658 20.6856 12.4661C19.4376 11.9416 19.0217 10.7803 19.5511 9.54395C20.61 7.14625 21.6689 4.74856 22.8412 2.42579C23.4085 1.26441 24.4295 0.477665 25.7531 0.252881C26.5095 0.140489 27.2658 0.028098 27.9844 0.028098C30.2534 -0.00936599 32.5224 -0.00936599 34.7915 0.028098C35.4344 0.028098 36.0395 0.0655625 36.6823 0.177954C39.2161 0.590058 39.9346 1.82637 38.8758 4.11167C37.9681 6.09726 36.9849 8.04539 36.1529 10.0684C35.2831 12.129 33.6948 12.9906 31.577 12.9906C30.1399 12.9906 28.6651 12.9906 27.228 12.9906ZM23.0681 10.3306C23.4842 10.3306 23.9002 10.2932 24.0515 10.2932C26.3584 10.3307 28.7408 10.3306 31.0477 10.3306C31.7662 10.3306 32.2199 9.8062 32.4846 9.20677C33.0897 7.85807 33.7326 6.50937 34.3755 5.1232C34.678 4.48631 34.9049 3.81196 35.2831 2.91282C32.2955 2.91282 29.5349 2.91282 26.7364 2.91282C25.6397 5.23559 24.1648 7.97035 23.0681 10.3306Z" fill="#181818"/>
<path d="M77.2984 2.80035C73.4788 2.80035 69.7349 2.80035 65.991 2.80035C65.6884 3.36231 65.4237 3.69949 65.2725 4.11159C65.159 4.33637 65.159 4.56116 65.0834 5.04819C65.8019 5.08565 66.407 5.16058 66.9742 5.16058C68.6004 5.16058 70.2643 5.12312 71.8905 5.19804C72.4956 5.23551 73.1385 5.3479 73.7057 5.61015C74.8024 6.09718 75.2184 7.10871 74.7646 8.27009C74.3864 9.31908 73.8948 10.3306 73.2897 11.3047C72.6468 12.4286 71.4745 12.9156 70.2643 12.9531C66.2179 12.9906 62.1336 12.9531 58.0115 12.9531C57.8224 11.8666 58.4653 11.2297 58.8813 10.3306C60.8856 10.3306 62.89 10.3306 64.8943 10.3306C66.1044 10.3306 67.2768 10.3306 68.4869 10.3306C70.34 10.2931 70.4156 10.2557 71.0963 8.1577C70.7181 8.04531 70.3022 7.85799 69.924 7.85799C68.1466 7.82052 66.407 7.85799 64.6296 7.82052C64.0245 7.82052 63.3438 7.78306 62.7765 7.55827C61.4529 7.10871 60.9235 6.02225 61.4151 4.74848C61.7933 3.77441 62.1714 2.72542 62.8143 1.90121C63.3816 1.22686 64.2514 0.739831 65.0455 0.327727C65.5372 0.102943 66.1422 0.0654788 66.7095 0.0654788C70.2265 0.0280148 73.7814 0.0654788 77.2984 0.0654788C77.6009 0.0654788 77.9034 0.177871 78.4707 0.252799C78.0547 1.11447 77.7144 1.86375 77.2984 2.80035Z" fill="#181818"/>
<path d="M51.2792 8.56989C52.2624 10.1808 52.9809 11.3797 53.8507 12.8033C52.4515 12.8033 51.317 12.8033 49.9556 12.8033C49.0858 11.5295 48.1781 10.1434 47.1949 8.68228C46.2873 8.68228 45.3418 8.68228 44.2451 8.68228C43.6022 10.031 42.9215 11.4171 42.203 12.8782C41.0685 12.8782 39.9718 12.8782 38.6104 12.8782C39.4802 10.4431 40.6147 8.27017 41.7492 5.90994C45.72 5.90994 49.653 5.90994 53.7373 5.90994C54.1911 4.93588 54.5693 4.07421 55.1365 2.87536C51.0901 2.61311 47.3462 2.91282 43.2997 2.68804C43.7157 1.71398 44.0182 1.00216 44.283 0.402739C44.5099 0.252883 44.6233 0.140491 44.7368 0.140491C48.4429 0.103027 52.149 0.103027 55.8929 0.103027C56.1954 0.103027 56.5358 0.177954 56.8383 0.252882C58.4645 0.70245 59.0695 1.86383 58.5023 3.39986C58.1241 4.37392 57.6325 5.31052 57.1787 6.28458C56.498 7.74568 55.3256 8.42003 53.7373 8.53242C53.0188 8.60735 52.338 8.56989 51.2792 8.56989Z" fill="#181818"/>
<path d="M97.1525 0.252771C95.186 4.52366 93.2952 8.6447 91.3665 12.8407C90.2319 12.8407 89.1352 12.8407 87.8495 12.8407C88.3411 11.6793 88.7571 10.5928 89.2865 9.39398C86.6393 9.39398 84.1433 9.39398 81.4961 9.39398C80.9667 10.4804 80.3616 11.6418 79.7565 12.8781C78.6976 12.8781 77.6388 12.8781 76.2773 12.8781C77.2606 10.7427 78.1304 8.75709 79.0758 6.65911C82.8954 6.65911 86.7149 6.65911 90.5723 6.65911C91.1396 5.38534 91.669 4.26142 92.2741 2.87525C88.4545 2.613 84.8619 2.91271 81.0045 2.68793C81.5718 1.41415 82.2903 0.664875 83.4248 0.3277C84.0299 0.14038 84.6728 0.0654515 85.2779 0.0654515C88.7949 0.0279875 92.3119 0.0279875 95.8667 0.0654515C96.2071 0.0279875 96.5853 0.140379 97.1525 0.252771Z" fill="#181818"/>
<path d="M120.826 7.85796C120.486 8.60724 120.108 9.43145 119.729 10.3306C123.133 10.3306 126.65 10.3306 130.129 10.3306C129.789 11.2297 129.448 12.2787 129.184 12.9531C126.915 12.9531 116.326 12.9531 114.624 12.9531C115.721 10.5179 117.12 7.74557 118.255 5.27295C121.809 5.27295 125.402 5.27295 128.995 5.27295C128.843 5.72252 128.692 6.05969 128.541 6.39687C128.352 6.84644 128.087 7.25854 127.785 7.8205C125.44 7.85796 123.133 7.85796 120.826 7.85796Z" fill="#181818"/>
<path d="M13.047 7.82061C10.6267 7.82061 8.39545 7.82061 6.05078 7.82061C5.25661 9.50649 4.46245 11.1549 3.63046 12.8408C2.53376 12.8408 1.39924 12.8408 0 12.8408C0.605078 11.4921 1.17234 10.2183 1.7396 8.94453C2.30686 7.70822 2.87412 6.47191 3.47919 5.2356C7.03403 5.2356 10.4376 5.2356 14.1437 5.2356C13.7655 6.20966 13.463 6.92148 13.047 7.82061Z" fill="#181818"/>
<path d="M119.465 2.68793C119.919 1.6764 120.221 0.964588 120.562 0.140381C125.327 0.140381 130.054 0.140381 134.97 0.140381C134.819 0.589949 134.743 0.852197 134.63 1.11445C134.403 1.60148 134.138 2.08851 133.873 2.65047C129.146 2.68793 124.457 2.68793 119.465 2.68793Z" fill="#181818"/>
<path d="M4.65137 2.76295C5.18081 1.63903 5.59673 0.664969 5.89927 0.0280814C7.97922 0.0280633 18.5302 0.0280943 20.0808 0.0280764C19.7404 0.777356 19.4758 1.86382 19.0598 2.76295C14.4082 2.80041 9.75671 2.80041 4.65137 2.76295Z" fill="#181818"/>
</svg>
